<svg xmlns="http://www.w3.org/2000/svg" viewBox="0 0 64 64"><path d="M22 14c-5 0-9 3.4-9 8.2 0 4.3 3 6.6 8.4 8l3.2.8c3.6.9 5 1.9 5 3.8 0 2.1-1.9 3.4-5 3.4-3.4 0-5.4-1.4-5.8-4H13c.4 5.7 4.7 9 11.4 9 6.7 0 11-3.3 11-8.6 0-4.3-2.6-6.7-8.4-8.1l-3.2-.8c-3.4-.8-5-1.9-5-3.7 0-2 1.8-3.3 4.6-3.3 2.9 0 4.7 1.3 5.1 3.6h5.8C33.9 17 30 14 22 14zM38 14v36h11.5c7 0 11.5-3.4 11.5-9 0-3.7-2.2-6.4-5.8-7.3 2.8-1 4.5-3.4 4.5-6.5 0-5.1-4-9.2-10.6-9.2H38zm5.8 5h5.1c3.5 0 5.6 1.8 5.6 4.7 0 3-2.1 4.8-5.7 4.8h-5V19zm0 14h5.6c4 0 6.3 1.9 6.3 5.1 0 3.2-2.3 5.1-6.3 5.1h-5.6V33z" fill="#0F172A"/></svg>
